<?xml version="1.0" standalone="no"?>
<!DOCTYPE svg PUBLIC "-//W3C//DTD SVG 20010904//EN"
 "http://www.w3.org/TR/2001/REC-SVG-20010904/DTD/svg10.dtd">
<svg version="1.0" xmlns="http://www.w3.org/2000/svg"
 width="388.000000pt" height="388.000000pt" viewBox="0 0 388.000000 388.000000"
 preserveAspectRatio="xMidYMid meet">
<metadata>
Created by potrace 1.14, written by Peter Selinger 2001-2017
</metadata>
<g transform="translate(0.000000,388.000000) scale(0.100000,-0.100000)"
fill="#000000" stroke="none">
<path d="M1904 3688 c-27 -19 -71 -73 -83 -103 -2 -5 -8 -14 -13 -20 -4 -5
-40 -59 -79 -120 -39 -60 -84 -129 -100 -152 -16 -23 -29 -46 -29 -52 0 -6 -3
-11 -7 -11 -5 0 -21 -23 -38 -51 -16 -28 -38 -63 -47 -78 -10 -14 -21 -33 -25
-41 -3 -8 -10 -17 -13 -20 -4 -3 -54 -84 -112 -180 -148 -246 -147 -243 -155
-260 -3 -8 -21 -38 -39 -67 -18 -28 -30 -54 -27 -57 4 -3 0 -6 -7 -6 -7 0 -10
-3 -7 -6 4 -4 -2 -19 -12 -33 -10 -14 -35 -60 -56 -101 -21 -41 -43 -78 -49
-82 -6 -4 -8 -8 -4 -8 4 0 -9 -33 -29 -72 -21 -40 -38 -75 -38 -78 0 -3 -13
-32 -28 -65 -48 -103 -114 -296 -136 -395 -16 -75 -19 -120 -16 -215 4 -119 9
-169 19 -212 3 -13 8 -33 11 -45 6 -28 43 -146 54 -173 40 -97 125 -246 185
-324 20 -24 182 -186 207 -205 82 -63 180 -118 314 -176 34 -15 126 -40 218
-59 89 -19 302 -22 387 -6 183 34 386 120 519 218 76 57 184 158 223 209 13
16 33 41 45 56 13 15 23 33 23 40 0 6 4 12 8 12 5 0 17 17 28 38 10 20 21 39
24 42 8 7 65 129 78 165 5 17 14 39 18 50 4 11 8 23 9 28 2 4 3 8 5 10 2 2 6
20 14 57 3 14 8 35 11 48 3 12 7 32 10 43 29 135 25 295 -14 451 -5 20 -6 39
-3 42 3 4 1 6 -5 6 -5 0 -10 6 -11 13 -2 40 -90 263 -154 390 -21 42 -35 77
-31 77 5 0 4 4 -2 8 -5 4 -25 36 -44 72 -18 36 -46 88 -61 115 -15 28 -41 75
-58 105 -91 169 -262 447 -530 863 -29 45 -77 120 -107 167 -73 114 -93 139
-126 156 -40 20 -79 17 -115 -8z m1003 -2139 c33 -12 55 -34 77 -77 25 -48 11
-181 -32 -319 -11 -34 -17 -65 -14 -68 3 -3 1 -5 -5 -5 -5 0 -10 -6 -10 -12 0
-23 -85 -188 -96 -188 -6 0 -7 -3 -4 -6 8 -8 -80 -122 -143 -184 -48 -49 -134
-120 -145 -120 -3 0 -15 -9 -26 -19 -11 -10 -41 -24 -65 -31 -61 -17 -114 0
-152 49 -22 30 -27 46 -27 96 0 73 17 99 93 146 95 58 225 202 269 299 46 101
68 176 78 275 10 90 23 119 69 149 43 28 87 33 133 15z"/>
</g>
</svg>
