<svg width="271" height="120" viewBox="0 0 271 120" fill="none" xmlns="http://www.w3.org/2000/svg">
<path d="M104.4 92.5C103.133 92.5 102.067 92.0667 101.2 91.2C100.333 90.3333 99.9 89.2667 99.9 88V23.1C99.9 21.8333 100.333 20.7667 101.2 19.9C102.067 18.9667 103.133 18.5 104.4 18.5C105.667 18.5 106.733 18.9667 107.6 19.9C108.533 20.7667 109 21.8333 109 23.1V64L132.8 42C133.8 41.1333 134.8 40.7 135.8 40.7C137.333 40.7 138.433 41.1333 139.1 42C139.833 42.8667 140.2 43.9 140.2 45.1C140.2 46.2333 139.633 47.3667 138.5 48.5L124.1 61.4L142.2 85.4C142.867 86.2667 143.2 87.1667 143.2 88.1C143.2 89.4333 142.767 90.5 141.9 91.3C141.033 92.1 139.933 92.5 138.6 92.5C137.933 92.5 137.267 92.3333 136.6 92C135.933 91.6667 135.367 91.2 134.9 90.6L117.7 67.2L109 75.1V88C109 89.2667 108.533 90.3333 107.6 91.2C106.733 92.0667 105.667 92.5 104.4 92.5ZM167.404 93C160.737 93 154.671 91.5 149.204 88.5C148.071 87.7 147.504 86.6 147.504 85.2C147.504 84.1333 147.871 83.2 148.604 82.4C149.337 81.6 150.271 81.2 151.404 81.2C152.004 81.2 152.604 81.3333 153.204 81.6C155.337 82.5333 157.471 83.2667 159.604 83.8C161.737 84.3333 164.137 84.6 166.804 84.6C174.204 84.6 177.904 82.2333 177.904 77.5C177.904 75.9667 177.037 74.8 175.304 74C173.637 73.2 170.871 72.3 167.004 71.3C163.071 70.3667 159.804 69.4 157.204 68.4C154.671 67.4 152.471 65.9 150.604 63.9C148.804 61.8333 147.904 59.1333 147.904 55.8C147.904 51.1333 149.571 47.3333 152.904 44.4C156.304 41.4667 161.137 40 167.404 40C172.537 40 177.371 40.8333 181.904 42.5C182.837 42.7667 183.537 43.2667 184.004 44C184.537 44.7333 184.804 45.5 184.804 46.3C184.804 47.3667 184.404 48.3 183.604 49.1C182.871 49.9 181.937 50.3 180.804 50.3C180.471 50.3 180.037 50.2333 179.504 50.1C175.637 48.9 171.837 48.3 168.104 48.3C164.504 48.3 161.671 48.9667 159.604 50.3C157.604 51.5667 156.604 53.2333 156.604 55.3C156.604 57.3 157.537 58.7667 159.404 59.7C161.271 60.6333 164.171 61.5333 168.104 62.4C172.037 63.4 175.237 64.4 177.704 65.4C180.171 66.3333 182.271 67.8333 184.004 69.9C185.804 71.9667 186.704 74.7333 186.704 78.2C186.704 82.4667 185.004 86 181.604 88.8C178.271 91.6 173.537 93 167.404 93ZM200.251 30.6C198.851 30.6 197.651 30.1 196.651 29.1C195.651 28.1 195.151 26.9 195.151 25.5V25.1C195.151 23.7 195.651 22.5 196.651 21.5C197.651 20.5 198.851 20 200.251 20H200.851C202.251 20 203.451 20.5 204.451 21.5C205.451 22.5 205.951 23.7 205.951 25.1V25.5C205.951 26.9 205.451 28.1 204.451 29.1C203.451 30.1 202.251 30.6 200.851 30.6H200.251ZM200.451 92.5C199.184 92.5 198.117 92.0667 197.251 91.2C196.384 90.3333 195.951 89.2667 195.951 88V45.1C195.951 43.8333 196.384 42.7667 197.251 41.9C198.117 40.9667 199.184 40.5 200.451 40.5C201.784 40.5 202.884 40.9333 203.751 41.8C204.617 42.6667 205.051 43.7667 205.051 45.1V88C205.051 89.2667 204.584 90.3333 203.651 91.2C202.784 92.0667 201.717 92.5 200.451 92.5ZM222.353 92.5C221.086 92.5 220.02 92.0667 219.153 91.2C218.286 90.3333 217.853 89.2667 217.853 88V45.1C217.853 43.8333 218.286 42.7667 219.153 41.9C220.02 40.9667 221.086 40.5 222.353 40.5C223.62 40.5 224.686 40.9667 225.553 41.9C226.486 42.7667 226.953 43.8333 226.953 45.1V49.2C229.486 46.4 232.22 44.1667 235.153 42.5C238.086 40.8333 241.553 40 245.553 40C249.22 40 252.386 40.8667 255.053 42.6C257.786 44.3333 259.853 46.7 261.253 49.7C262.72 52.7 263.453 56 263.453 59.6V88C263.453 89.2667 262.986 90.3333 262.053 91.2C261.186 92.0667 260.12 92.5 258.853 92.5C257.586 92.5 256.52 92.0667 255.653 91.2C254.786 90.3333 254.353 89.2667 254.353 88V60.6C254.353 52.4667 250.686 48.4 243.353 48.4C240.02 48.4 237.02 49.2667 234.353 51C231.753 52.7333 229.286 55.0667 226.953 58V88C226.953 89.2667 226.486 90.3333 225.553 91.2C224.686 92.0667 223.62 92.5 222.353 92.5Z" fill="#092E6D"/>
<path d="M26 92.5C24.8 92.5 23.7 92.1667 22.7 91.5C21.7 90.7667 20.9667 89.8667 20.5 88.8L3.1 47.2C2.76667 46.4 2.6 45.7 2.6 45.1C2.6 43.8333 3.03333 42.7667 3.9 41.9C4.76667 40.9667 5.83333 40.5 7.1 40.5C7.96667 40.5 8.76667 40.7667 9.5 41.3C10.3 41.7667 10.8667 42.3667 11.2 43.1L26.5 81.9L41.8 43.1C42.1333 42.3667 42.6667 41.7667 43.4 41.3C44.2 40.7667 45.0333 40.5 45.9 40.5C47.1667 40.5 48.2333 40.9667 49.1 41.9C49.9667 42.7667 50.4 43.8333 50.4 45.1C50.4 45.7 50.2333 46.4 49.9 47.2L32.5 88.8C32.0333 89.8667 31.3 90.7667 30.3 91.5C29.3 92.1667 28.2 92.5 27 92.5H26Z" fill="#092E6D"/>
<path d="M74.9394 9.34251C72.3636 4.80818 69.6362 4.96453 67.0603 9.34251C55.2417 27.4799 37.3623 54.6859 37.3623 68.2889C37.3623 77.8266 41.1503 86.5826 47.2111 92.8368C53.272 99.0911 61.7571 103 70.9999 103C80.2426 103 88.7278 99.0911 94.7886 92.8368C100.849 86.5826 104.637 77.8266 104.637 68.2889C104.637 54.5295 86.758 27.4799 74.9394 9.34251ZM95.2432 83.7682C92.8189 87.8334 89.3339 91.4296 85.0913 93.9313C83.1215 95.0258 80.6972 94.4004 79.6366 92.3678C78.4244 90.1788 79.182 87.6771 81.1518 86.5826C84.1822 84.8627 86.6065 82.361 88.4248 79.3902C90.243 76.4194 91.3036 72.9796 91.4552 69.3834C91.6067 67.038 93.4249 65.3181 95.6977 65.4745C97.9706 65.6308 99.6373 67.5071 99.4858 69.8524C99.1827 74.8558 97.6675 79.5465 95.2432 83.7682Z" fill="#2F67C8"/>
</svg>
